# xmcd
#
# Track frame offsets:
#       150
#       16070
#       47864
#       75801
#       91941
#       126795
#       160049
#       177202
#       208589
#       240298
#       252645
#       296204
#
# Disc length: 4373 seconds
#
# Revision: 2
# Processed by: cddbd v1.5.1PL0 Copyright (c) Steve Scherf et al.
# Submitted via: WaveLab 4.01
#
DISCID=9311130c
DTITLE=Various Artist - Dos or Die Multi Maxi CD 1
DYEAR=2003
DGENRE=Trance
TTITLE0=DJ Rock - Sometimes my heart (Radio Edit)
TTITLE1=DJ Rock - Sometimes my heart (Original Mix)
TTITLE2=DJ Rock - Sometimes my heart (Alex Butcher Remix)
TTITLE3=Adrima - Rainbowland (Follow Me) (Original Single)
TTITLE4=Adrima - Rainbowland (Follow Me) (Energy Vocal Club Mix)
TTITLE5=Adrima - Rainbowland (Follow Me) (DJ Shog Remix)
TTITLE6=Walt and Feliz - Endless (Original Radio Edit)
TTITLE7=Walt and Feliz - Endless (Original Mix)
TTITLE8=Walt and Feliz - Endless (Marcel Woods Dark Dub Remix)
TTITLE9=Slusnik Luna - Sun (Radio Edit)
TTITLE10=Slusnik Luna - Sun (Original Mix)
TTITLE11=Slusnik Luna - Sun (Norman Bass Remix)
EXTD=
EXTT0=
EXTT1=
EXTT2=
EXTT3=
EXTT4=
EXTT5=
EXTT6=
EXTT7=
EXTT8=
EXTT9=
EXTT10=
EXTT11=
PLAYORDER=
